<?xml version="1.0" standalone="no"?>
<!DOCTYPE svg PUBLIC "-//W3C//DTD SVG 20010904//EN"
 "http://www.w3.org/TR/2001/REC-SVG-20010904/DTD/svg10.dtd">
<svg version="1.0" xmlns="http://www.w3.org/2000/svg"
 width="120.000000pt" height="180.000000pt" viewBox="0 0 120.000000 180.000000"
 preserveAspectRatio="xMidYMid meet">

<g transform="translate(0.000000,180.000000) scale(0.100000,-0.100000)"
fill="#000000" stroke="none">
<path d="M410 1606 c0 -2 8 -10 18 -17 15 -13 16 -12 3 4 -13 16 -21 21 -21
13z"/>
<path d="M299 1473 c-13 -16 -12 -17 4 -4 9 7 17 15 17 17 0 8 -8 3 -21 -13z"/>
<path d="M880 1486 c0 -2 8 -10 18 -17 15 -13 16 -12 3 4 -13 16 -21 21 -21
13z"/>
<path d="M412 1198 c-30 -30 -1 -75 43 -64 22 6 26 11 23 39 -2 26 -8 33 -28
35 -14 2 -31 -3 -38 -10z"/>
<path d="M727 1203 c-4 -3 -7 -19 -7 -34 0 -22 6 -30 25 -35 43 -11 73 34 43
64 -13 13 -50 16 -61 5z"/>
<path d="M480 1091 c0 -10 19 -25 25 -20 1 2 -3 10 -11 17 -8 7 -14 8 -14 3z"/>
<path d="M702 1084 c-7 -8 -8 -14 -3 -14 10 0 25 19 20 25 -2 1 -10 -3 -17
-11z"/>
<path d="M530 990 c5 -86 20 -109 70 -109 50 0 65 23 70 109 l5 80 -75 0 -75
0 5 -80z m93 -20 c-4 -16 -8 -18 -19 -9 -9 7 -14 8 -14 1 0 -6 3 -12 8 -15 4
-2 1 -2 -6 0 -7 1 -10 -2 -7 -7 3 -6 -1 -7 -9 -4 -9 3 -16 1 -16 -6 0 -6 5 -8
10 -5 6 3 10 1 10 -5 0 -6 10 -2 22 10 12 11 26 20 30 20 5 0 6 5 3 10 -3 6
-1 10 5 10 6 0 8 5 4 12 -4 6 -3 8 3 5 13 -8 8 -53 -7 -72 -16 -19 -64 -19
-79 -1 -13 15 -4 49 10 40 5 -3 9 0 9 6 0 6 10 15 23 20 12 5 23 9 24 9 0 1
-1 -8 -4 -19z"/>
<path d="M625 930 c-16 -17 -16 -20 -3 -15 9 4 19 13 22 21 7 19 2 18 -19 -6z"/>
</g>
</svg>
